<svg width="20" height="20" viewBox="0 0 20 20" fill="none" xmlns="http://www.w3.org/2000/svg">
<path d="M10 0C4.48566 0 0 4.48609 0 10C0 15.5139 4.48566 20 10 20C15.5143 20 20 15.5139 20 10C20 4.48609 15.5143 0 10 0ZM10 19.1667C4.94547 19.1667 0.83332 15.0545 0.83332 10C0.83332 4.94547 4.94547 0.83332 10 0.83332C15.0545 0.83332 19.1667 4.94547 19.1667 10C19.1667 15.0545 15.0545 19.1667 10 19.1667Z" fill="white"/>
<path d="M13.9754 9.64954L8.14211 5.89954C8.01434 5.81614 7.84914 5.81165 7.7173 5.88407C7.58301 5.95731 7.5 6.09731 7.5 6.24989V13.7499C7.5 13.9025 7.58301 14.0425 7.7173 14.1157C7.77914 14.1495 7.84832 14.1666 7.91668 14.1666C7.9948 14.1666 8.07375 14.1446 8.14211 14.1002L13.9754 10.3502C14.0943 10.2738 14.1667 10.1415 14.1667 9.99989C14.1667 9.85829 14.0943 9.72606 13.9754 9.64954ZM8.33332 12.9865V7.01325L12.9793 9.99989L8.33332 12.9865Z" fill="white"/>
</svg>
